# Blender v2.58 (sub 0) OBJ File: 'tree.blend'
# www.blender.org
mtllib tree.mtl
o Cylinder
v -0.278798 -0.105196 -0.548892
v -0.197079 -0.105196 -0.536242
v -0.123360 -0.105196 -0.499530
v -0.064856 -0.105196 -0.442349
v -0.027294 -0.105196 -0.370298
v -0.014351 -0.105196 -0.290428
v -0.027294 -0.105196 -0.210557
v -0.064856 -0.105196 -0.138506
v -0.123360 -0.105196 -0.081325
v -0.197079 -0.105196 -0.044613
v -0.278798 -0.105196 -0.031963
v -0.360517 -0.105196 -0.044613
v -0.434237 -0.105196 -0.081325
v -0.492741 -0.105196 -0.138506
v -0.530303 -0.105196 -0.210558
v -0.543246 -0.105196 -0.290428
v -0.530303 -0.105196 -0.370298
v -0.492740 -0.105196 -0.442350
v -0.434236 -0.105196 -0.499530
v -0.360516 -0.105196 -0.536242
v -0.248379 1.962179 -0.326907
v -0.273386 -0.105196 -0.255980
v -0.009515 1.216695 -1.162112
v -0.248378 1.081856 -1.326907
v 0.276648 1.374488 -1.061573
v 0.558861 1.489100 -0.888189
v 0.646653 1.118938 -0.468897
v 0.821343 1.426352 -0.340618
v 0.862646 1.078146 0.004316
v 0.518742 1.423112 0.224135
v 0.277555 1.178801 0.443195
v 0.026102 1.429940 0.617796
v -0.188569 1.186182 0.729643
v -0.530865 1.259080 0.624254
v -0.850051 1.137057 0.731494
v -1.016953 1.150713 0.415958
v -1.256019 1.158432 0.172864
v -1.206302 1.172080 -0.296265
v -1.224442 1.444354 -0.565000
v -1.114648 1.206882 -0.740517
v -0.883739 1.164144 -1.093674
v -0.541764 1.392256 -1.156321
v -0.197079 1.040053 -0.536242
v -0.278798 1.040053 -0.548892
v -0.123360 1.040053 -0.499530
v -0.064855 1.040053 -0.442349
v -0.027293 1.040053 -0.370297
v -0.014351 1.040053 -0.290427
v -0.027294 1.040053 -0.210557
v -0.064856 1.040053 -0.138505
v -0.123360 1.040053 -0.081325
v -0.197080 1.040053 -0.044613
v -0.278799 1.040053 -0.031963
v -0.360517 1.040053 -0.044613
v -0.434237 1.040053 -0.081325
v -0.492741 1.040053 -0.138506
v -0.530303 1.040053 -0.210558
v -0.543246 1.040053 -0.290428
v -0.530302 1.040053 -0.370298
v -0.492740 1.040053 -0.442350
v -0.434236 1.040053 -0.499530
v -0.360516 1.040053 -0.536243
v -0.278798 1.040053 -0.548892
v -0.360516 1.040053 -0.536243
v -0.248379 1.351614 -0.826907
v -0.128946 1.149276 -1.244510
v 0.133567 1.295592 -1.111843
v 0.448817 1.398775 -1.007642
v 0.633819 1.271000 -0.711304
v 0.841994 1.252249 -0.168151
v 0.690694 1.250629 0.114225
v 0.398149 1.300956 0.333665
v 0.151829 1.304370 0.530495
v -0.081234 1.308061 0.673719
v -0.359717 1.222631 0.676948
v -0.690458 1.198068 0.677874
v -0.933502 1.143885 0.573726
v -1.136486 1.154572 0.294411
v -1.231160 1.165256 -0.061701
v -1.215372 1.308217 -0.430633
v -1.169545 1.325618 -0.652759
v -0.999193 1.185513 -0.917095
v -0.712751 1.278200 -1.124997
v -0.395071 1.237056 -1.241614
v -0.395072 1.506814 -0.741614
v -0.566059 1.392758 -0.710290
v -0.681514 1.414127 -0.533712
v -0.736411 1.532863 -0.445954
v -0.727341 1.396726 -0.311586
v -0.752199 1.389902 -0.077022
v -0.632666 1.386042 0.044525
v -0.549215 1.379215 0.202294
v -0.389622 1.440226 0.148673
v -0.218474 1.403777 0.201368
v -0.111139 1.525656 0.145444
v 0.014588 1.400086 0.058144
v 0.135181 1.522242 -0.051386
v 0.307133 1.349759 -0.161296
v 0.286482 1.523862 -0.333762
v 0.199137 1.370155 -0.397902
v 0.186303 1.522217 -0.640309
v 0.014134 1.497930 -0.694240
v -0.128947 1.419034 -0.744510
vt 0.398645 0.782412
vt 0.398788 0.000027
vt 0.454615 0.000037
vt 0.454471 0.782422
vt 0.504977 0.000046
vt 0.504834 0.782431
vt 0.752489 0.000276
vt 0.751613 0.782661
vt 0.712550 0.782617
vt 0.713425 0.000232
vt 0.663327 0.782562
vt 0.664203 0.000177
vt 0.608763 0.782501
vt 0.609639 0.000116
vt 0.554199 0.782440
vt 0.555075 0.000055
vt 0.504977 0.782385
vt 0.505853 0.000000
vt 0.000143 0.000000
vt 0.000000 0.782385
vt 0.039968 0.782393
vt 0.040111 0.000007
vt 0.090330 0.782402
vt 0.090473 0.000017
vt 0.146157 0.782412
vt 0.146300 0.000027
vt 0.201983 0.782422
vt 0.202127 0.000037
vt 0.252345 0.782431
vt 0.252489 0.000046
vt 0.999125 0.782660
vt 1.000000 0.000276
vt 0.960937 0.000232
vt 0.960062 0.782617
vt 0.911714 0.000177
vt 0.910839 0.782562
vt 0.857150 0.000116
vt 0.856275 0.782501
vt 0.802586 0.000055
vt 0.801712 0.782440
vt 0.753364 0.000000
vt 0.752489 0.782385
vt 0.252489 0.782385
vt 0.252632 0.000000
vt 0.292599 0.000007
vt 0.292456 0.782392
vt 0.342961 0.000017
vt 0.342818 0.782402
vt 0.486353 0.927548
vt 0.823326 0.966990
vt 0.910672 1.120697
vt 0.492825 0.927548
vt 0.360601 0.774446
vt 0.319742 0.768121
vt 0.435527 0.122255
vt 0.375811 0.163453
vt 0.375811 -0.086546
vt 0.375811 0.913454
vt 0.435526 0.872255
vt 0.435527 1.122255
vt 0.495243 0.081056
vt 0.435526 -0.127745
vt 0.435526 0.117038
vt 0.375811 0.083328
vt 0.375810 0.388610
vt 0.566783 0.055921
vt 0.507067 0.847120
vt 0.566783 1.055921
vt 0.638324 0.030786
vt 0.507067 -0.152880
vt 0.507067 0.156486
vt 0.724409 0.003821
vt 0.593152 0.820155
vt 0.724409 1.003821
vt 0.779431 0.944095
vt 0.593152 0.168629
vt 0.816910 0.855652
vt 0.599568 0.698951
vt 0.823326 0.734449
vt 0.698951 0.092598
vt 0.820155 0.168629
vt 0.663454 0.388610
vt 0.599568 0.092598
vt 0.643241 0.169452
vt 0.599568 1.092598
vt 0.643241 1.169452
vt 0.920997 0.584075
vt 0.910672 0.670309
vt 0.643241 0.666881
vt 0.653567 0.580648
vt 0.931323 0.497842
vt 0.375810 0.663454
vt 0.845347 0.442887
vt 0.567591 0.525693
vt 0.759371 0.387932
vt 0.525693 0.168642
vt 0.580648 0.082400
vt 0.699074 0.333168
vt 0.507294 0.470928
vt 0.638778 0.278403
vt 0.507294 0.107564
vt 0.567591 0.168642
vt 0.575914 0.234752
vt 0.444431 0.427278
vt 0.513051 0.191102
vt 0.427278 0.170349
vt 0.470928 0.107564
vt 0.459383 0.163140
vt 0.390763 0.399316
vt 0.405715 0.135179
vt 0.390763 0.109409
vt 0.444431 0.170349
vt 0.320141 0.161526
vt 0.305189 0.425663
vt 0.234568 0.187873
vt 0.305189 0.127634
vt 0.154771 0.161063
vt 0.225392 0.398853
vt 0.074975 0.134253
vt 0.225392 0.097128
vt 0.033249 0.213137
vt 0.183667 0.477737
vt 0.991524 0.292021
vt 1.033249 0.213137
vt 1.183667 0.477737
vt 0.931757 0.352794
vt 0.123900 0.538511
vt -0.068243 0.352794
vt 0.871991 0.413568
vt 1.123900 0.538511
vt 0.884420 0.530850
vt 0.136330 0.655793
vt -0.115580 0.530850
vt 0.896849 0.648133
vt 1.136330 0.655793
vt 0.655793 0.105884
vt 0.538511 0.102472
vt 0.892314 0.061629
vt 0.896849 -0.006439
vt 1.136330 0.105884
vt 0.136330 0.105884
vt 0.131795 0.173952
vt -0.107686 0.061629
vt 0.887779 0.129698
vt 1.131795 0.173952
vt 0.722977 0.173952
vt 0.915228 0.070330
vt 0.159243 0.114584
vt -0.084772 0.070330
vt 0.942676 0.010962
vt 1.159243 0.114584
vt 0.000403 0.958548
vt -0.057324 0.870259
vt 0.159243 0.766856
vt 0.216970 0.855145
vt 0.058131 0.046837
vt 0.000403 -0.041452
vt 0.216970 -0.144855
vt 0.143624 0.062499
vt 0.302464 0.870807
vt 0.143624 1.062499
vt 0.229118 0.078161
vt 0.302464 -0.129193
vt 0.302464 0.160928
vt 0.302464 1.120807
vt 0.302464 0.120807
vt 0.401460 -0.231879
vt 0.360601 -0.225554
vt 0.438320 -0.250235
vt 0.467572 -0.278825
vt 0.779431 -0.055905
vt 0.486353 0.685149
vt 0.467572 0.721175
vt 0.779431 0.152071
vt 0.816910 0.043021
vt 0.467572 -0.072452
vt 0.486353 0.605279
vt 0.492825 0.645214
vt 0.910672 0.120697
vt 0.920997 0.033645
vt 0.492825 -0.072452
vt 0.931323 -0.053406
vt 0.486353 -0.072452
vt 0.467572 0.569253
vt 0.931323 0.946594
vt 0.845347 1.032835
vt 0.845347 0.032835
vt 0.759371 0.119077
vt 0.438320 0.540662
vt 0.401460 0.522306
vt 0.360601 0.515981
vt 0.191102 0.122491
vt 0.163140 0.061551
vt 0.522306 -0.072452
vt 0.135179 0.000612
vt 0.515981 -0.072452
vt 0.319741 0.522306
vt 0.282882 0.540663
vt 0.253630 0.569253
vt -0.008476 0.292021
vt 1.234849 0.605279
vt 1.253630 0.569253
vt 1.228377 0.645214
vt 0.892314 0.715316
vt 1.234849 0.685149
vt 0.896849 0.993561
vt 0.892314 1.061629
vt 1.228377 0.927548
vt 0.887779 0.782500
vt 0.915228 0.826379
vt 1.253630 0.721175
vt 0.942676 0.870259
vt 0.282882 0.749765
vt 0.253630 0.721175
vt 1.000403 0.958548
vt 0.058131 1.046837
vt 0.319742 -0.231879
vt 0.282882 -0.250235
vt 0.078161 0.103649
vt 0.120807 0.026049
vt -0.231879 -0.072452
vt 0.163453 -0.051551
vt -0.225554 -0.072452
vt 0.000000 0.000000
vt 1.000000 0.000000
vt 1.000000 1.000000
vn 0.000000 -0.674215 -0.738487
vn -0.029786 -0.665456 -0.745811
vn 0.281533 -0.637867 -0.716819
vn 0.223762 -0.674093 -0.703909
vn 0.486282 -0.576556 -0.656545
vn 0.428144 -0.673757 -0.602252
vn 0.633076 -0.583697 -0.508377
vn 0.593585 -0.673299 -0.440748
vn 0.799799 -0.597247 -0.059725
vn 0.701987 -0.672933 -0.233100
vn 0.800470 -0.560717 0.211676
vn 0.739799 -0.672811 0.000000
vn 0.715567 -0.654439 0.244209
vn 0.701987 -0.672933 0.233100
vn 0.625172 -0.603259 0.495163
vn 0.593585 -0.673299 0.440748
vn 0.462752 -0.600818 0.651784
vn 0.428144 -0.673757 0.602252
vn 0.249855 -0.589770 0.767907
vn 0.223762 -0.674093 0.703909
vn 0.023133 -0.630116 0.776116
vn 0.000000 -0.674215 0.738487
vn -0.216590 -0.652760 0.725883
vn -0.223762 -0.674093 0.703909
vn -0.407788 -0.685873 0.602680
vn -0.428144 -0.673757 0.602252
vn -0.583331 -0.691031 0.426801
vn -0.593585 -0.673299 0.440748
vn -0.694937 -0.683279 0.223914
vn -0.701987 -0.672933 0.233100
vn -0.768181 -0.638417 -0.047517
vn -0.739799 -0.672811 0.000000
vn -0.768670 -0.585009 -0.258614
vn -0.701987 -0.672933 -0.233100
vn -0.644887 -0.633839 -0.426984
vn -0.593585 -0.673299 -0.440748
vn -0.419294 -0.640889 -0.642964
vn -0.428144 -0.673757 -0.602252
vn -0.253182 -0.610157 -0.750694
vn -0.223762 -0.674093 -0.703909
vn 0.741722 -0.659597 -0.121281
vn 0.865352 0.366283 -0.342021
vn -0.294412 0.849391 -0.437941
vn -0.230659 0.860530 -0.454146
vn 0.539781 0.005493 -0.841762
vn -0.012177 -0.387616 -0.921720
vn 0.203772 0.808313 -0.552324
vn -0.067110 0.750145 -0.657826
vn 0.482925 -0.010071 -0.875576
vn -0.015259 0.999664 -0.019562
vn 0.329753 -0.045595 -0.942930
vn -0.060945 0.775262 -0.628651
vn 0.255531 0.111270 -0.960356
vn 0.596088 -0.027070 -0.802423
vn 0.390454 0.919706 -0.040254
vn 0.797021 0.468642 -0.380871
vn 0.918821 -0.108127 -0.379498
vn 0.550981 0.744774 -0.376415
vn 0.433576 0.848811 -0.302469
vn 0.998352 0.054659 0.016449
vn 0.472823 0.857692 0.201910
vn 0.859004 -0.430952 0.276345
vn 0.719443 0.232948 0.654286
vn 0.368328 0.849117 0.378552
vn 0.614948 0.507736 0.603320
vn 0.656087 -0.032380 0.753960
vn 0.357646 0.820917 0.445112
vn 0.559099 -0.425733 0.711417
vn 0.560472 -0.066378 0.825465
vn 0.183599 0.871120 0.455428
vn 0.308115 0.481338 0.820582
vn 0.276345 0.112094 0.954466
vn -0.276284 0.819788 0.501572
vn 0.215308 -0.264840 0.939940
vn -0.286508 -0.025575 0.957701
vn -0.044008 0.796167 0.603442
vn -0.005951 0.226875 0.973876
vn 0.247230 0.128422 0.960387
vn -0.339671 0.877377 0.338816
vn -0.373394 -0.163732 0.913083
vn -0.876736 -0.131199 0.462722
vn -0.466170 0.804224 0.368603
vn -0.810968 -0.138188 0.568499
vn -0.709403 -0.135105 0.691671
vn -0.483718 0.854885 0.187506
vn -0.931608 -0.099307 0.349590
vn -0.986999 -0.122349 -0.103946
vn -0.560656 0.763543 0.320292
vn -0.930387 -0.260079 -0.258217
vn -0.994629 -0.099216 0.029054
vn -0.428327 0.892758 -0.139439
vn -0.858455 0.461654 -0.223304
vn -0.868221 -0.105075 -0.484878
vn -0.269478 0.735984 -0.620991
vn -0.927580 -0.241462 -0.285043
vn -0.833674 -0.102115 -0.542680
vn -0.499252 0.820063 -0.279641
vn -0.491623 -0.232643 -0.839137
vn -0.292337 0.107883 -0.950194
vn -0.116367 0.814264 -0.568651
vn -0.247078 0.476333 -0.843806
vn -0.340770 0.119205 -0.932524
vn 0.000000 -1.000000 0.000000
usemtl Material.001_BarkDecidious0107_S.j
s 1
f 1/1/1 44/2/2 43/3/3 2/4/4
f 2/4/4 43/3/3 45/5/5 3/6/6
f 3/7/6 45/8/5 46/9/7 4/10/8
f 4/10/8 46/9/7 47/11/9 5/12/10
f 5/12/10 47/11/9 48/13/11 6/14/12
f 6/14/12 48/13/11 49/15/13 7/16/14
f 7/16/14 49/15/13 50/17/15 8/18/16
f 8/19/16 50/20/15 51/21/17 9/22/18
f 9/22/18 51/21/17 52/23/19 10/24/20
f 10/24/20 52/23/19 53/25/21 11/26/22
f 11/26/22 53/25/21 54/27/23 12/28/24
f 12/28/24 54/27/23 55/29/25 13/30/26
f 13/31/26 55/32/25 56/33/27 14/34/28
f 14/34/28 56/33/27 57/35/29 15/36/30
f 15/36/30 57/35/29 58/37/31 16/38/32
f 16/38/32 58/37/31 59/39/33 17/40/34
f 17/40/34 59/39/33 60/41/35 18/42/36
f 18/43/36 60/44/35 61/45/37 19/46/38
f 19/46/38 61/45/37 62/47/39 20/48/40
f 44/2/2 1/1/1 20/48/40 62/47/39
usemtl Material.001_Groundplants0153_5_S.
f 47/49/9 27/50/41 28/51/42 48/52/11
f 44/53/2 62/54/39 64/54/43 63/53/44
f 66/55/45 24/56/46 65/57/47
f 65/58/47 103/59/48 66/60/45
f 23/61/49 66/55/45 103/62/48
f 103/63/48 65/64/47 21/65/50
f 67/66/51 23/61/49 103/62/48
f 103/59/48 102/67/52 67/68/51
f 25/69/53 67/66/51 102/70/52
f 102/71/52 103/63/48 21/65/50
f 68/72/54 25/69/53 102/70/52
f 102/67/52 101/73/55 68/74/54
f 26/75/56 68/74/54 101/73/55
f 101/76/55 102/71/52 21/65/50
f 69/77/57 26/75/56 101/73/55
f 101/73/55 100/78/58 69/77/57
f 27/79/41 69/77/57 100/78/58
f 100/80/58 101/81/55 21/82/50
f 100/83/58 21/65/50 99/84/59
f 27/50/41 100/85/58 99/86/59 28/51/42
f 70/87/60 28/88/42 99/89/59
f 99/89/59 98/90/61 70/87/60
f 29/91/62 70/87/60 98/90/61
f 98/90/61 99/89/59 21/92/50
f 71/93/63 29/91/62 98/90/61
f 98/90/61 97/94/64 71/93/63
f 30/95/65 71/93/63 97/94/64
f 97/96/64 98/97/61 21/82/50
f 72/98/66 30/95/65 97/94/64
f 97/94/64 96/99/67 72/98/66
f 31/100/68 72/98/66 96/99/67
f 96/101/67 97/102/64 21/65/50
f 73/103/69 31/100/68 96/99/67
f 96/99/67 95/104/70 73/103/69
f 32/105/71 73/103/69 95/104/70
f 95/106/70 96/107/67 21/82/50
f 74/108/72 32/105/71 95/104/70
f 95/104/70 94/109/73 74/108/72
f 33/110/74 74/108/72 94/109/73
f 94/111/73 95/112/70 21/65/50
f 75/113/75 33/110/74 94/109/73
f 94/109/73 93/114/76 75/113/75
f 34/115/77 75/113/75 93/114/76
f 93/116/76 94/111/73 21/65/50
f 76/117/78 34/115/77 93/114/76
f 93/114/76 92/118/79 76/117/78
f 35/119/80 76/117/78 92/118/79
f 92/120/79 93/116/76 21/65/50
f 77/121/81 35/119/80 92/118/79
f 92/118/79 91/122/82 77/121/81
f 36/123/83 77/124/81 91/125/82
f 91/122/82 92/118/79 21/92/50
f 78/126/84 36/123/83 91/125/82
f 91/122/82 90/127/85 78/128/84
f 37/129/86 78/126/84 90/130/85
f 90/127/85 91/122/82 21/92/50
f 79/131/87 37/129/86 90/130/85
f 90/127/85 89/132/88 79/133/87
f 38/134/89 79/131/87 89/135/88
f 89/136/88 90/137/85 21/82/50
f 80/138/90 38/139/89 89/140/88
f 89/141/88 88/142/91 80/143/90
f 39/144/92 80/138/90 88/145/91
f 88/146/91 89/136/88 21/82/50
f 81/147/93 39/144/92 88/145/91
f 88/142/91 87/148/94 81/149/93
f 40/150/95 81/147/93 87/151/94
f 87/148/94 88/142/91 21/65/50
f 82/152/96 40/153/95 87/154/94
f 87/154/94 86/155/97 82/152/96
f 41/156/98 82/157/96 86/158/97
f 86/155/97 87/154/94 21/92/50
f 83/159/99 41/156/98 86/158/97
f 86/155/97 85/160/100 83/161/99
f 42/162/101 83/159/99 85/163/100
f 85/160/100 86/155/97 21/92/50
f 85/164/100 21/65/50 65/64/47
f 65/58/47 84/165/102 85/160/100
f 42/162/101 85/163/100 84/166/102
f 84/166/102 65/57/47 24/56/46
f 66/55/45 43/167/3 44/168/2
f 24/56/46 66/55/45 44/168/2
f 66/55/45 23/61/49 43/167/3
f 67/66/51 45/169/5 43/167/3
f 23/61/49 67/66/51 43/167/3
f 67/66/51 25/69/53 45/169/5
f 68/72/54 46/170/7 45/169/5
f 25/69/53 68/72/54 45/169/5
f 68/72/54 26/171/56 46/170/7
f 69/77/57 47/172/9 46/173/7
f 26/174/56 69/175/57 46/176/7
f 69/77/57 27/79/41 47/172/9
f 70/87/60 49/177/13 48/178/11
f 28/179/42 70/180/60 48/181/11
f 70/180/60 29/182/62 49/183/13
f 71/93/63 50/184/15 49/177/13
f 29/185/62 71/186/63 49/49/13
f 71/187/63 30/188/65 50/176/15
f 72/98/66 51/189/17 50/184/15
f 30/95/65 72/98/66 50/184/15
f 72/98/66 31/100/68 51/189/17
f 73/103/69 52/190/19 51/189/17
f 31/100/68 73/103/69 51/189/17
f 73/103/69 32/105/71 52/190/19
f 74/108/72 53/191/21 52/190/19
f 32/192/71 74/193/72 52/194/19
f 74/193/72 33/195/74 53/196/21
f 75/113/75 54/197/23 53/191/21
f 33/110/74 75/113/75 53/191/21
f 75/113/75 34/115/77 54/197/23
f 76/117/78 55/198/25 54/197/23
f 34/115/77 76/117/78 54/197/23
f 76/117/78 35/119/80 55/198/25
f 77/121/81 56/199/27 55/198/25
f 35/119/80 77/121/81 55/198/25
f 77/121/81 36/200/83 56/199/27
f 78/126/84 57/201/29 56/202/27
f 36/123/83 78/126/84 56/202/27
f 78/126/84 37/129/86 57/201/29
f 79/131/87 58/203/31 57/201/29
f 37/129/86 79/131/87 57/201/29
f 79/131/87 38/134/89 58/203/31
f 80/204/90 59/205/33 58/203/31
f 38/206/89 80/207/90 58/208/31
f 80/204/90 39/209/92 59/205/33
f 81/210/93 60/211/35 59/205/33
f 39/209/92 81/210/93 59/205/33
f 81/210/93 40/212/95 60/211/35
f 82/152/96 61/213/37 60/214/35
f 40/212/95 82/215/96 60/211/35
f 82/152/96 41/216/98 61/213/37
f 83/159/99 62/217/39 61/218/37
f 41/156/98 83/159/99 61/218/37
f 83/159/99 42/162/101 62/217/39
f 84/166/102 44/168/2 62/217/39
f 42/219/101 84/220/102 62/221/39
f 84/220/102 24/222/46 44/223/2
usemtl Material.001
f 22/224/103 1/225/1 2/226/4
f 22/224/103 2/225/4 3/226/6
f 22/224/103 3/225/6 4/226/8
f 22/224/103 4/225/8 5/226/10
f 22/224/103 5/225/10 6/226/12
f 22/224/103 6/225/12 7/226/14
f 22/224/103 7/225/14 8/226/16
f 22/224/103 8/225/16 9/226/18
f 22/224/103 9/225/18 10/226/20
f 22/224/103 10/225/20 11/226/22
f 22/224/103 11/225/22 12/226/24
f 22/224/103 12/225/24 13/226/26
f 22/224/103 13/225/26 14/226/28
f 22/224/103 14/225/28 15/226/30
f 22/224/103 15/225/30 16/226/32
f 22/224/103 16/225/32 17/226/34
f 22/224/103 17/225/34 18/226/36
f 22/224/103 18/225/36 19/226/38
f 22/224/103 19/225/38 20/226/40
f 20/224/40 1/225/1 22/226/103
