# Blender v2.58 (sub 0) OBJ File: ''
# www.blender.org
mtllib untitled.mtl
o Cube
v 1.000000 -1.440407 -1.000000
v 1.000000 -1.440407 1.000000
v -1.000000 -1.440407 1.000000
v -1.000000 -1.440407 -1.000000
v 1.000000 0.559593 -0.999999
v 0.999999 0.559593 1.000001
v -1.000000 0.559593 1.000000
v -1.000000 0.559593 -1.000000
v 1.194666 -1.635073 0.000000
v 0.000000 -1.635073 -1.194666
v 1.194666 -0.440407 -1.194666
v 0.000000 -1.635073 1.194666
v 1.194666 -0.440407 1.194666
v -1.194666 -1.635073 -0.000000
v -1.194666 -0.440407 1.194666
v -1.194666 -0.440407 -1.194666
v 1.194666 0.754259 0.000000
v 0.000000 0.754259 -1.194666
v -0.000000 0.754259 1.194666
v -1.194666 0.754259 -0.000000
v 0.000000 -1.983915 -0.000000
v -0.000000 1.103101 0.000000
v 1.543508 -0.440407 0.000000
v -0.000000 -0.440407 1.543508
v -1.543508 -0.440407 -0.000000
v 0.000000 -0.440407 -1.543508
v 0.651570 3.151907 1.846237
v 0.651570 3.500750 0.651571
v 1.846236 3.151907 0.651571
v 1.651570 2.957242 1.651572
v -0.417933 2.292165 1.612598
v -0.417933 2.641007 0.417932
v -1.612599 2.292165 0.417932
v -1.417933 2.097499 1.417932
v 0.000000 0.754259 -1.194666
v -0.000000 1.103101 0.000000
v -1.194666 0.754259 -0.000000
v -1.000000 0.559593 -1.000000
v -2.508660 6.111159 -2.508661
v -1.508660 6.305825 -2.703327
v -2.703326 6.305825 -1.508661
v -1.508661 6.654667 -1.508661
v 1.194666 0.754259 0.000000
v -0.000000 1.103101 0.000000
v 0.000000 0.754259 -1.194666
v 1.000000 0.559593 -0.999999
v 1.367481 1.911847 -1.367480
v 1.562146 2.106513 -0.367480
v 0.367481 2.106513 -1.562146
v 0.367480 2.455355 -0.367480
vt 0.000000 0.000000
vt 1.000000 0.000000
vt 1.000000 1.000000
vt 0.000000 1.000000
vn 0.253666 -0.933438 0.253666
vn 0.253666 -0.933438 -0.253666
vn -0.253666 -0.933438 0.253666
vn -0.253666 -0.933438 -0.253666
vn 0.933439 0.253666 -0.253665
vn 0.933438 -0.253666 -0.253666
vn 0.933438 0.253666 0.253666
vn 0.933438 -0.253666 0.253666
vn 0.253666 0.253666 0.933439
vn 0.253666 -0.253666 0.933438
vn -0.253666 0.253666 0.933438
vn -0.253666 -0.253666 0.933438
vn -0.933439 0.253666 0.253666
vn -0.933438 -0.253666 0.253666
vn -0.933438 0.253666 -0.253666
vn -0.933438 -0.253666 -0.253666
vn 0.253666 -0.253666 -0.933438
vn 0.253666 0.253666 -0.933438
vn -0.253666 -0.253666 -0.933439
vn -0.253666 0.253666 -0.933438
vn -0.967281 0.243537 0.071113
vn 0.071113 0.243537 -0.967281
vn 0.127612 -0.292245 0.947791
vn 0.947791 -0.292245 0.127613
vn 0.253666 0.933438 0.253666
vn 0.967281 0.243537 0.071113
vn -0.071113 0.243537 -0.967281
vn -0.947791 -0.292245 0.127612
vn -0.127613 -0.292245 0.947791
vn -0.253666 0.933438 0.253666
vn 0.000000 0.000000 0.000000
vn -0.127612 -0.292245 -0.947791
vn -0.947791 -0.292245 -0.127613
vn -0.071113 0.243537 0.967281
vn 0.967281 0.243537 -0.071113
vn -0.253666 0.933439 -0.253666
vn 0.947791 -0.292245 -0.127612
vn 0.127613 -0.292245 -0.947791
vn -0.967281 0.243537 -0.071113
vn 0.071113 0.243537 0.967281
vn 0.253666 0.933438 -0.253666
usemtl Material_lava.bmp
s off
f 9/1/1 2/2/1 12/3/1 21/4/1
f 1/1/2 9/2/2 21/3/2 10/4/2
f 21/1/3 12/2/3 3/3/3 14/4/3
f 10/1/4 21/2/4 14/3/4 4/4/4
f 11/1/5 5/2/5 17/3/5 23/4/5
f 1/1/6 11/2/6 23/3/6 9/4/6
f 23/1/7 17/2/7 6/3/7 13/4/7
f 9/1/8 23/2/8 13/3/8 2/4/8
f 13/1/9 6/2/9 19/3/9 24/4/9
f 2/1/10 13/2/10 24/3/10 12/4/10
f 24/1/11 19/2/11 7/3/11 15/4/11
f 12/1/12 24/2/12 15/3/12 3/4/12
f 15/1/13 7/2/13 20/3/13 25/4/13
f 3/1/14 15/2/14 25/3/14 14/4/14
f 25/1/15 20/2/15 8/3/15 16/4/15
f 14/1/16 25/2/16 16/3/16 4/4/16
f 11/1/17 1/2/17 10/3/17 26/4/17
f 5/1/18 11/2/18 26/3/18 18/4/18
f 26/1/19 10/2/19 4/3/19 16/4/19
f 18/1/20 26/2/20 16/3/20 8/4/20
f 22/1/21 19/2/21 27/3/21 28/4/21
f 17/1/22 22/2/22 28/3/22 29/4/22
f 19/1/23 6/2/23 30/3/23 27/4/23
f 6/1/24 17/2/24 29/3/24 30/4/24
f 29/1/25 28/2/25 27/3/25 30/4/25
f 19/1/26 22/2/26 32/3/26 31/4/26
f 22/1/27 20/2/27 33/3/27 32/4/27
f 20/1/28 7/2/28 34/3/28 33/4/28
f 7/1/29 19/2/29 31/3/29 34/4/29
f 32/1/30 33/2/30 34/3/30 31/4/30
f 22/1/31 18/2/31 35/3/31 36/4/31
f 20/1/31 22/2/31 36/3/31 37/4/31
f 8/1/31 20/2/31 37/3/31 38/4/31
f 18/1/31 8/2/31 38/3/31 35/4/31
f 35/1/32 38/2/32 39/3/32 40/4/32
f 38/1/33 37/2/33 41/3/33 39/4/33
f 37/1/34 36/2/34 42/3/34 41/4/34
f 36/1/35 35/2/35 40/3/35 42/4/35
f 40/1/36 39/2/36 41/3/36 42/4/36
f 22/1/31 17/2/31 43/3/31 44/4/31
f 18/1/31 22/2/31 44/3/31 45/4/31
f 5/1/31 18/2/31 45/3/31 46/4/31
f 17/1/31 5/2/31 46/3/31 43/4/31
f 43/1/37 46/2/37 47/3/37 48/4/37
f 46/1/38 45/2/38 49/3/38 47/4/38
f 45/1/39 44/2/39 50/3/39 49/4/39
f 44/1/40 43/2/40 48/3/40 50/4/40
f 47/1/41 49/2/41 50/3/41 48/4/41
